<svg xmlns="http://www.w3.org/2000/svg" width="4961" height="3508" viewBox="0 0 4961 3508">
  <defs>
    <style>
      .cls-1 {
        fill: #252825;
        fill-rule: evenodd;
      }
    </style>
  </defs>
  <path id="twitter" class="cls-1" d="M4245.98,738.72l-298.51,303.73v50.63c0,55.51-8.78,108.54-21.49,160.03-6.96,417.85-137.77,971.94-675,1409.29-1056.8,860.27-2189.01,101.25-2189.01,101.25,895.51,0,895.51-303.75,895.51-303.75-199,0-597-404.97-597-404.97,99.5,101.23,298.5,0,298.5,0-497.51-303.75-497.51-607.49-497.51-607.49,99.51,101.25,298.51,0,298.51,0-497.5-404.99-199-911.229-199-911.229,99.5,506.239,1393,708.729,1393,708.729l16.45-8.37c-10.15-46.31-16.45-144.69-16.45-194.12,0-363.452,289.55-607.473,646.74-607.473,196.6,0,370.57,91.166,489.17,232.05l58.08-29.555,298.51-202.495-199.01,404.99Z"/>
</svg>
